<?xml version="1.0" encoding="utf-8"?>
<!-- Generator: Adobe Illustrator 23.0.6, SVG Export Plug-In . SVG Version: 6.00 Build 0)  -->
<svg version="1.1" id="b9ee2df6-dca3-497f-8708-5dc244a4f78d"
	 xmlns="http://www.w3.org/2000/svg" xmlns:xlink="http://www.w3.org/1999/xlink" x="0px" y="0px" viewBox="0 0 566.9 566.9"
	 style="enable-background:new 0 0 566.9 566.9;" xml:space="preserve">
<style type="text/css">
	.st0{fill:#FF671F;}
</style>
<title>Coimbra Sports</title>
<path class="st0" d="M263.6,566.2l-32.5-33.8c-19.1-20.2-36.9-41.6-53.5-63.9c-36.9-49.8-55.6-90.8-55.6-121.7V89.5h141.6V242h-37.8
	V127.3h-66v219.5c0,32.9,35.5,84.6,66,122.2V329.7h37.8V566.2z"/>
<path class="st0" d="M276.2,566.2V329.7H314V469c30.5-37.6,66-89.3,66-122.2c0-15.1-5.9-19.6-26.4-33c-12.1-7.9-27.1-17.8-42.7-33.3
	c-35.6-35.6-35.3-64.9-34.9-109.3c0-5.3,0.1-11,0.1-17V89.5h141.7v152.6h-37.8V127.3h-66v27c0,6.2-0.1,11.9-0.1,17.4
	c-0.4,42-0.6,57.8,23.8,82.2c12.8,12.8,25.4,21.1,36.6,28.4c21.4,14,43.5,28.5,43.5,64.7c0,30.9-18.7,71.8-55.6,121.7
	c-16.6,22.3-34.4,43.6-53.5,63.9L276.2,566.2z"/>
<path class="st0" d="M153.1,48.9v14.9c0,8.6-4,12.9-12.1,12.9h-6.6c-8.1,0-12.1-4.3-12.1-12.9v-50c0-8.6,4-12.9,12.1-12.9h6.6
	c8.1,0,12.1,4.3,12.1,12.9v8.6h-10.1v-7.8c0-3-1.5-4.4-4.6-4.4h-2c-2.7,0-4,1.5-4,4.4V63c0,3,1.3,4.4,4,4.4h2.5c2.7,0,4-1.5,4-4.4
	V48.9H153.1z"/>
<path class="st0" d="M178,76.6c-8.2,0-12.3-4.3-12.2-12.9V13.8c0-8.7,4-13,12.1-13h9.7c8.1,0,12.1,4.3,12.1,13v49.9
	c0,8.6-4.1,12.9-12.2,12.9H178z M180.4,67.5h5.2c2.7,0,4-1.5,4-4.4V14.5c0-3-1.5-4.4-4.6-4.4h-4.7c-3,0-4.4,1.5-4.4,4.4V63
	C175.8,66,177.4,67.5,180.4,67.5L180.4,67.5z"/>
<path class="st0" d="M214,76.6V0.8h10.1v75.8H214z"/>
<path class="st0" d="M259.4,18.2l10.9-17.3h9.7v75.8h-10.1L269.4,24l-7.6,10.2h-4.8L249.4,24L249,76.6h-10.1V0.8h9.7L259.4,18.2z"/>
<path class="st0" d="M321.4,30.1c5.3,0,5.3,7.5,5.3,11.7v23.5c0,7.5-3.8,11.3-11.5,11.3h-20.4V0.8h17.3c9,0,13.5,4.6,13.5,13.7v4
	C325.6,22.9,325.3,30.1,321.4,30.1z M304.9,25.3h4.7c3.9,0,5.8-1.8,5.8-5.5v-4.3c0-3.7-1.5-5.5-4.6-5.5h-6L304.9,25.3z M304.9,67.4
	h7.6c2.7,0,4-1.1,4-3.3V39.8c0-3.6-2-5.4-6-5.4h-5.6L304.9,67.4z"/>
<path class="st0" d="M340.4,0.8h19.8c7.7,0,11.6,4.3,11.6,13v30.8c0,6.6-2,10.8-6,12.6l7.1,19.4h-11.1l-6.6-18.5h-4.6v18.5h-10.1
	L340.4,0.8z M350.5,48.9h6.7c3,0,4.6-1.8,4.6-5.5V15.5c0-3.7-1.5-5.5-4.6-5.5h-6.7V48.9z"/>
<path class="st0" d="M395.2,76.6h-10.1V13.8c0-8.7,4-13,12.1-13h7.6c8.1,0,12.1,4.3,12.1,13v62.8h-10.1V58.1h-11.6V76.6z
	 M406.8,48.9V14.5c0-3-1.5-4.4-4.4-4.4h-2.7c-3,0-4.4,1.5-4.4,4.4v34.4H406.8z"/>
</svg>
