<?xml version="1.0" encoding="utf-8"?>
<!-- Generator: Adobe Illustrator 23.0.1, SVG Export Plug-In . SVG Version: 6.00 Build 0)  -->
<svg version="1.1" id="Layer_1" xmlns="http://www.w3.org/2000/svg" xmlns:xlink="http://www.w3.org/1999/xlink" x="0px" y="0px"
	 viewBox="0 0 595.3 595.3" style="enable-background:new 0 0 595.3 595.3;" xml:space="preserve">
<style type="text/css">
	.st0{fill:#D22B35;}
	.st1{fill:#FFFFFF;}
</style>
<circle class="st0" cx="297.6" cy="297.6" r="287.2"/>
<circle class="st1" cx="297.6" cy="297.6" r="273.5"/>
<circle class="st0" cx="297.6" cy="297.6" r="245.4"/>
<circle class="st1" cx="297.6" cy="297.6" r="194.7"/>
<path class="st0" d="M299,468.7C204.6,469,128,392.6,127.7,298c-0.3-94.4,75.9-170.9,170.6-171.2c94.5-0.3,171,75.9,171.3,170.5
	C469.9,391.6,393.4,468.4,299,468.7z M442.1,231.8c-14.4-36.2-61.2-79.2-89.9-83c0,99.4,0,198.8,0,299c43-17.1,73.2-46,92.1-88.1
	c-10.3-3.9-20.2-7.6-30.2-11.4c-8.5,16.9-15.7,34.1-35.7,41.1c0-65.6,0-130.2,0-195.8c10,5.9,16.8,13.9,22.6,22.8
	c5.9,9,11.3,18.3,17.2,27.9C426.1,240.1,434,236,442.1,231.8z M301.7,241.4c0-27.1,0-53.3,0-81.1c12.1,1.8,23.5,3.5,35.3,5.3
	c0-5.7-0.2-11.7,0.1-17.8c0.2-3.8-1.3-5.4-4.9-6.1c-17.4-3.6-34.8-4.9-52.5-3.1c-6.1,0.6-7.8,2.5-7.8,8.6
	c0.3,99.1,0.4,198.3,0.5,297.4c0,2.6-0.3,5.3,0.1,7.8c0.2,1.3,1.6,3.4,2.6,3.5c8.5,0.9,17.1,1.4,26.5,2.1c0-64.3,0-127.4,0-191.1
	c12.1,0,23.5,0,34.9,0c0-8.8,0-16.9,0-25.5C324.8,241.4,313.5,241.4,301.7,241.4z M207,195.8c0.5,0.5,1.1,1,1.6,1.6
	c0,2.8,0,5.6,0,8.5c0,73,0,146,0.1,219.1c0,2.5,0.6,6.4,2.3,7.4c8.4,5.2,17.2,9.6,27.3,15.1c0-4.4,0-6.9,0-9.5
	c0-81.7,0-163.4,0.1-245.1c0-20.4,0-20.3,19.9-26.3c1.6-0.5,4-2,4.1-3.2c0.4-7,0.2-14.1,0.2-21.8c-32.3,7.6-59,22.7-81.3,45.9
	c-0.8,0.9-1.6,2.2-1.6,3.4c-0.1,8.3-0.1,16.7-0.1,25.5C189.2,209,198.1,202.4,207,195.8z"/>
<path class="st1" d="M442.1,231.8c-8.1,4.3-15.9,8.4-23.9,12.5c-5.8-9.5-11.3-18.8-17.2-27.9c-5.8-8.9-12.7-16.9-22.6-22.8
	c0,65.5,0,130.2,0,195.8c20-7,27.2-24.2,35.7-41.1c10,3.8,19.9,7.5,30.2,11.4c-18.8,42-49.1,71-92.1,88.1c0-100.2,0-199.6,0-299
	C380.9,152.6,427.7,195.6,442.1,231.8z"/>
<path class="st1" d="M301.7,241.4c11.8,0,23.1,0,34.8,0c0,8.6,0,16.7,0,25.5c-11.3,0-22.7,0-34.9,0c0,63.7,0,126.8,0,191.1
	c-9.4-0.7-18-1.2-26.5-2.1c-1-0.1-2.3-2.2-2.6-3.5c-0.4-2.5-0.1-5.2-0.1-7.8c-0.1-99.1-0.2-198.3-0.5-297.4c0-6.1,1.7-8,7.8-8.6
	c17.7-1.8,35.1-0.5,52.5,3.1c3.6,0.8,5.1,2.3,4.9,6.1c-0.3,6.1-0.1,12.1-0.1,17.8c-11.8-1.8-23.2-3.5-35.3-5.3
	C301.7,188.2,301.7,214.3,301.7,241.4z"/>
<path class="st1" d="M207,195.8c-8.9,6.6-17.8,13.2-27.5,20.5c0-8.8-0.1-17.1,0.1-25.5c0-1.1,0.8-2.5,1.6-3.4
	c22.2-23.2,49-38.3,81.3-45.9c0,7.7,0.2,14.7-0.2,21.8c-0.1,1.2-2.5,2.7-4.1,3.2c-19.9,6-19.9,5.9-19.9,26.3
	c0,81.7,0,163.4-0.1,245.1c0,2.5,0,5.1,0,9.5c-10.1-5.5-18.9-9.9-27.3-15.1c-1.7-1-2.3-4.9-2.3-7.4c-0.1-73-0.1-146-0.1-219.1
	c0-2.8,0-5.6,0-8.5C208.1,196.8,207.5,196.3,207,195.8z"/>
<g>
	<path class="st1" d="M75.9,266.5l2.3-11.6l6.2,1.2L82,267.7L75.9,266.5z"/>
	<path class="st1" d="M79.7,201.9l13-24.1l6.3,3.4l-4.4,8.1l19.3,10.4l-4.3,7.9l-19.3-10.4l-4.4,8.1L79.7,201.9z"/>
	<path class="st1" d="M112.8,150.4l5.6-7l13.6,10.8c1.3,1.1,2.5,2.3,3.3,3.7c0.9,1.4,1.4,2.9,1.6,4.5c0.2,1.6,0.1,3.1-0.4,4.3
		c-0.6,1.8-1.6,3.6-3.2,5.5c-0.9,1.1-1.9,2.3-3.1,3.5c-1.2,1.2-2.4,2-3.5,2.6c-1.2,0.5-2.5,0.8-3.9,0.9c-1.4,0.1-2.7-0.1-3.8-0.6
		c-1.8-0.7-3.3-1.5-4.4-2.4L101,165.3l5.6-7l13.9,11.1c1.2,1,2.5,1.4,3.7,1.3c1.2-0.1,2.4-0.8,3.3-2c1-1.2,1.4-2.4,1.2-3.7
		c-0.1-1.2-0.8-2.4-2.1-3.4L112.8,150.4z"/>
	<path class="st1" d="M130.1,131.3l11.2-9.9c2.4-2.2,4.8-3.2,7-3.1c2.2,0.1,4.3,1.2,6.2,3.3c2,2.2,2.8,4.5,2.6,6.9
		c-0.2,2.4-1.7,4.8-4.4,7.2l-3.7,3.3l7.2,8.1l-6.8,6L130.1,131.3z M145.1,134.7l1.7-1.5c1.3-1.2,2-2.2,2.1-3.1
		c0.1-0.9-0.1-1.7-0.7-2.4c-0.6-0.7-1.3-1.1-2.2-1.1c-0.9-0.1-2,0.4-3.2,1.6l-1.9,1.7L145.1,134.7z"/>
	<path class="st1" d="M158.4,107.3l8.5-5.3l10.2,5.3L177,95.9l8.5-5.2l-0.7,20.4l6.4,10.4l-7.7,4.8l-6.4-10.4L158.4,107.3z"/>
	<path class="st1" d="M198.2,84.5l7.8-3.1l16.1,11.1l-5.9-15l7.9-3.1l10.6,27.2l-7.9,3.1l-16-11l5.8,14.9l-7.9,3.1L198.2,84.5z"/>
	<path class="st1" d="M262.4,90.4l-10.1,1.9l-0.5,5l-9,1.7l5.3-30.7l9.7-1.9L274,93l-9.3,1.8L262.4,90.4z M259.4,84.5l-5.1-9.7
		l-1.1,10.9L259.4,84.5z"/>
	<path class="st1" d="M283.3,62.8l11.9,0.2l4.3,17.8l4.8-17.7l11.8,0.2l-0.5,29.2l-7.4-0.1l0.4-22.3l-6.1,22.2l-6.7-0.1l-5.3-22.3
		l-0.4,22.3l-7.4-0.1L283.3,62.8z"/>
	<path class="st1" d="M332.8,65.1l16.6,3.3c2.8,0.5,4.7,1.6,6,3.3c1.2,1.7,1.6,3.5,1.2,5.5c-0.3,1.7-1.1,3-2.4,4
		c-0.9,0.7-2,1.1-3.5,1.3c2,0.9,3.3,2,4,3.4c0.7,1.4,0.9,3,0.6,4.8c-0.3,1.5-0.9,2.8-1.8,3.8c-0.9,1.1-2.1,1.8-3.4,2.3
		c-0.8,0.3-2,0.4-3.5,0.3c-2-0.1-3.4-0.3-4-0.4l-15.3-3L332.8,65.1z M337.3,89.3l4.5,0.9c1.5,0.3,2.7,0.2,3.4-0.2
		c0.7-0.4,1.2-1.1,1.4-2c0.2-0.8,0-1.6-0.5-2.2c-0.5-0.6-1.6-1.1-3.1-1.4l-4.5-0.9L337.3,89.3z M339.5,78.1l3.8,0.8
		c1.4,0.3,2.4,0.2,3-0.1c0.6-0.4,1-1,1.2-1.9c0.2-0.8,0-1.5-0.4-2.1c-0.4-0.6-1.3-1-2.7-1.3l-3.9-0.8L339.5,78.1z"/>
	<path class="st1" d="M382.1,104l-9.5-3.7l-3.1,4l-8.6-3.3l20.8-23.2l9.2,3.6l-0.4,31.2l-8.8-3.4L382.1,104z M382.6,97.4l0.8-10.9
		l-6.8,8.6L382.6,97.4z M388.8,72.1l6.5,2.5l-8.2,3.2l-3.6-1.4L388.8,72.1z"/>
	<path class="st1" d="M401.7,107.4l7.6,4c-0.6,1.3-0.8,2.4-0.7,3.3c0.2,1.5,1,2.7,2.5,3.6c1.1,0.7,2.1,0.9,3,0.8
		c0.9-0.2,1.6-0.6,2-1.3c0.4-0.6,0.5-1.4,0.2-2.3c-0.3-0.9-1.3-2.1-3.1-3.8c-2.9-2.8-4.7-5.3-5.4-7.4c-0.7-2.1-0.5-4.2,0.7-6.1
		c0.8-1.3,1.9-2.3,3.3-3c1.4-0.7,3.1-0.9,5-0.7c1.9,0.2,4.1,1.2,6.7,2.7c3.2,1.9,5.3,4,6.2,6.2c1,2.2,0.8,4.7-0.4,7.5l-7.5-4
		c0.5-1.2,0.6-2.3,0.3-3.2c-0.3-0.9-1-1.7-2.1-2.3c-0.9-0.5-1.7-0.8-2.4-0.7c-0.7,0.1-1.2,0.4-1.5,1c-0.2,0.4-0.3,0.9-0.1,1.4
		c0.2,0.5,0.8,1.4,2,2.5c2.9,2.8,4.9,5,5.9,6.6c1,1.6,1.5,3.2,1.5,4.7s-0.4,2.9-1.2,4.3c-1,1.6-2.3,2.8-4,3.6
		c-1.7,0.8-3.6,1.1-5.6,0.8c-2-0.3-4.2-1.1-6.6-2.6c-4.3-2.6-6.7-5.2-7.3-7.8C400,112.7,400.4,110.1,401.7,107.4z"/>
	<path class="st1" d="M477.2,141.7l14.3,17.1l-4.8,4l-8.5-10.2l-3.9,3.3l7.2,8.7l-4.5,3.8l-7.2-8.7l-9.2,7.6l-5.8-7L477.2,141.7z"/>
	<path class="st1" d="M495.3,196.7l1.9,8c-2.2,0.7-4.2,0.9-6.1,0.6c-1.9-0.2-3.5-0.9-5.1-2c-1.5-1.1-2.9-2.7-4.2-5
		c-1.6-2.7-2.5-5.2-2.7-7.4c-0.2-2.2,0.3-4.5,1.6-7c1.3-2.4,3.5-4.6,6.6-6.4c4.2-2.4,8-3.2,11.5-2.3c3.5,0.9,6.5,3.4,8.9,7.4
		c1.9,3.2,2.7,6,2.5,8.6c-0.2,2.6-1.4,5.1-3.5,7.5l-5.6-6c0.6-0.7,1-1.3,1.2-1.7c0.3-0.8,0.5-1.6,0.4-2.4c0-0.8-0.3-1.6-0.8-2.4
		c-1-1.8-2.5-2.7-4.5-2.8c-1.5-0.1-3.3,0.5-5.6,1.8c-2.8,1.6-4.5,3.2-5,4.6c-0.5,1.5-0.4,2.9,0.5,4.5c0.9,1.5,2,2.4,3.2,2.6
		C492,197.5,493.5,197.3,495.3,196.7z"/>
	<path class="st1" d="M517.6,248.4l2.6,11.5l-6.1,1.4l-2.6-11.5L517.6,248.4z"/>
</g>
<g>
	<path class="st1" d="M96,306.2l-29.3-0.5l0.1-8.1l19.2,0.4c-1-1.3-1.8-2.6-2.3-3.9c-0.6-1.2-1.2-2.8-1.7-4.6l6.6,0.1
		c0.8,2.7,1.8,4.9,3.1,6.4c1.2,1.5,2.7,2.7,4.5,3.6L96,306.2z"/>
	<path class="st1" d="M73.3,316.1l1.8,7.8c-1.1,0.3-1.8,0.8-2.2,1.3c-0.4,0.5-0.6,1.2-0.5,1.9c0.1,1.3,0.9,2.2,2.3,2.8
		c1,0.4,3.1,0.6,6.2,0.5c-1.1-0.8-1.9-1.8-2.5-2.7c-0.6-1-0.9-2.1-1.1-3.4c-0.3-2.6,0.4-4.8,2.1-6.8c1.6-2,3.9-3.1,6.6-3.4
		c1.9-0.2,3.7,0.1,5.3,0.8c1.7,0.7,3,1.8,3.9,3.3c1,1.5,1.6,3.4,1.8,5.8c0.3,2.9,0.1,5.2-0.7,7.1c-0.8,1.8-2.2,3.4-4.3,4.7
		c-2,1.3-4.8,2.1-8.3,2.5c-5.2,0.5-9.1-0.1-11.7-2.1c-2.6-1.9-4.2-4.8-4.6-8.7c-0.2-2.3-0.2-4.1,0.2-5.5c0.4-1.4,1-2.6,2-3.5
		C70.6,317.5,71.8,316.7,73.3,316.1z M87.7,329.4c1.6-0.2,2.7-0.7,3.5-1.6c0.8-0.9,1.1-1.9,1-3c-0.1-1.1-0.6-1.9-1.5-2.5
		c-0.9-0.6-2.1-0.8-3.7-0.7c-1.6,0.2-2.8,0.7-3.6,1.5c-0.8,0.8-1.1,1.8-1,2.8c0.1,1.1,0.6,2,1.5,2.7
		C84.9,329.3,86.1,329.6,87.7,329.4z"/>
	<path class="st1" d="M102.9,356.3L74.4,363l-1.9-7.9l18.7-4.4c-1.3-1-2.3-2.1-3.2-3.2c-0.9-1.1-1.8-2.4-2.8-4.1l6.4-1.5
		c1.5,2.5,3,4.3,4.5,5.5c1.5,1.2,3.3,2,5.3,2.4L102.9,356.3z"/>
	<path class="st1" d="M111,380.3l-27.5,10.2l-2.8-7.6l18-6.7c-1.4-0.9-2.6-1.8-3.6-2.7c-1-0.9-2.1-2.2-3.3-3.7l6.2-2.3
		c1.8,2.3,3.5,3.9,5.2,4.9c1.7,1,3.5,1.6,5.5,1.7L111,380.3z"/>
	<path class="st1" d="M105.2,405l5.7,10.2l-5.4,3L99.8,408L105.2,405z"/>
	<path class="st1" d="M139.4,429.6l5.5,7l-12.4,9.6c-2.6,2-4.7,3.3-6.5,3.9c-1.7,0.6-3.6,0.6-5.6-0.1c-2-0.7-3.9-2.1-5.6-4.2
		c-1.8-2.3-2.9-4.3-3.2-6.1c-0.4-1.7-0.2-3.4,0.4-5c0.7-1.6,1.8-3.2,3.5-4.7l6.2,6c-1,0.8-1.7,1.5-2,2c-0.4,0.5-0.5,1.1-0.5,1.8
		c0,0.4,0.2,0.9,0.6,1.4c0.6,0.8,1.4,1.1,2.2,1c0.9-0.1,2-0.7,3.4-1.8L139.4,429.6z"/>
	<path class="st1" d="M161.2,453.1l6.4,6.2l-11.9,12.4c-1.2,1.2-2.5,2.2-3.9,2.9c-1.4,0.7-3,1.1-4.6,1.1s-3-0.2-4.2-0.8
		c-1.7-0.7-3.4-2-5.2-3.6c-1-1-2-2.1-3.1-3.4c-1.1-1.3-1.8-2.5-2.2-3.7c-0.4-1.2-0.6-2.5-0.5-3.9c0.1-1.4,0.4-2.7,0.9-3.7
		c0.9-1.7,1.8-3.1,2.8-4.1l11.9-12.4l6.4,6.2l-12.2,12.7c-1.1,1.1-1.6,2.3-1.6,3.6c0,1.2,0.6,2.4,1.7,3.5c1.1,1.1,2.3,1.6,3.5,1.6
		c1.2,0,2.4-0.6,3.5-1.8L161.2,453.1z"/>
	<path class="st1" d="M171.7,462.1l7.1,5.4l-17.5,22.9l-7.1-5.4L171.7,462.1z"/>
	<path class="st1" d="M182.1,470.3l21.5,13.2l-3,4.9l-22.6,5.9l14.3,8.8l-3.2,5.3L165.7,494l3.1-5.1l22.4-5.9l-12.3-7.6L182.1,470.3
		z"/>
	<path class="st1" d="M217.5,490.2l12.4,4.5c2.5,0.9,4.3,1.9,5.6,3.2c1.3,1.2,2.2,2.6,2.7,4.2c0.5,1.6,0.7,3.3,0.6,5.1
		c-0.2,1.8-0.6,3.6-1.2,5.5c-1.1,2.9-2.2,5-3.4,6.4c-1.2,1.4-2.6,2.4-4.2,3c-1.6,0.7-3.1,0.9-4.6,0.8c-2-0.2-3.8-0.5-5.3-1.1
		l-12.4-4.5L217.5,490.2z M223.6,499.3l-5.4,14.8l2.1,0.7c1.8,0.6,3.1,0.9,3.9,0.8c0.9-0.1,1.7-0.6,2.5-1.4c0.8-0.8,1.6-2.3,2.3-4.5
		c1-2.9,1.3-5,0.7-6.4c-0.6-1.4-1.9-2.5-4.1-3.3L223.6,499.3z"/>
	<path class="st1" d="M245.6,499.9l23.4,4.9l-1.3,6l-14.6-3.1l-0.9,4.5l13.6,2.8l-1.2,5.8l-13.6-2.8l-1.2,5.6l15.1,3.1l-1.3,6.4
		l-23.8-5L245.6,499.9z"/>
	<path class="st1" d="M284.9,506.4l22,0.3l-0.1,6.2l-13.1-0.2l-0.1,5l11.2,0.2l-0.1,5.8l-11.2-0.2l-0.2,11.8l-9-0.1L284.9,506.4z"/>
	<path class="st1" d="M310.9,521.2c-0.6-4.7,0.3-8.5,2.5-11.4c2.3-2.9,5.7-4.7,10.4-5.3c4.8-0.6,8.6,0.2,11.5,2.5
		c2.9,2.2,4.6,5.7,5.2,10.3c0.4,3.3,0.2,6.2-0.7,8.4c-0.9,2.3-2.3,4.2-4.3,5.6c-2,1.5-4.6,2.4-7.7,2.8c-3.2,0.4-6,0.2-8.2-0.5
		c-2.2-0.8-4.2-2.2-5.8-4.2C312.3,527.3,311.3,524.6,310.9,521.2z M319.8,520.2c0.4,2.9,1.2,4.9,2.4,6c1.2,1.1,2.8,1.6,4.6,1.3
		c1.9-0.2,3.3-1,4.2-2.4c0.9-1.4,1.1-3.7,0.7-6.9c-0.3-2.7-1.1-4.6-2.4-5.7c-1.2-1.1-2.8-1.5-4.7-1.3c-1.8,0.2-3.1,1-4.1,2.4
		C319.7,515.1,319.4,517.3,319.8,520.2z"/>
	<path class="st1" d="M349.9,530.1l-7.9-27.8l14.3-4.1c2.7-0.8,4.7-1.1,6.3-1c1.5,0.1,2.9,0.6,4.1,1.6c1.2,1,2.1,2.4,2.6,4.1
		c0.4,1.5,0.5,3,0.1,4.3c-0.3,1.3-1,2.5-1.9,3.5c-0.6,0.7-1.5,1.3-2.7,2c1.1,0.1,2,0.2,2.5,0.4c0.4,0.1,1,0.5,1.8,1.1
		c0.8,0.6,1.4,1,1.7,1.4l6.4,6.9l-9.7,2.8l-7-7.2c-0.9-0.9-1.6-1.5-2.2-1.7c-0.7-0.3-1.5-0.3-2.3,0l-0.8,0.2l3.2,11.3L349.9,530.1z
		 M353.9,511.2l3.6-1c0.4-0.1,1.1-0.5,2.2-1c0.5-0.3,0.9-0.7,1.1-1.3c0.2-0.6,0.3-1.2,0.1-1.8c-0.3-0.9-0.7-1.5-1.4-1.8
		c-0.7-0.3-1.8-0.3-3.4,0.2l-3.8,1.1L353.9,511.2z"/>
	<path class="st1" d="M396.7,508.6l-9.2,4.2l0.7,4.9l-8.3,3.7l-2-30.8l8.9-4l21.8,21.8l-8.5,3.8L396.7,508.6z M392.4,503.7l-7.2-8.1
		l1.4,10.7L392.4,503.7z"/>
	<path class="st1" d="M414.8,488.5l9.7-6.5l3.4,5.2l-9.7,6.5L414.8,488.5z"/>
	<path class="st1" d="M427.9,461l8.4-8.1l15.4,9.5l-9-15.7l8.4-8.1l20,20.8l-5.3,5.1l-15.3-15.8l11.2,19.7l-4.8,4.6l-19.3-11.9
		l15.3,15.8l-5.3,5.1L427.9,461z"/>
	<path class="st1" d="M477.3,434.5l-4.8-3.6l8.2-11.1l9.9,7.3c-0.1,3.2-0.5,5.8-1.2,7.8c-0.7,2-1.8,4.1-3.5,6.4
		c-2,2.8-4.2,4.7-6.4,5.7c-2.2,1-4.6,1.4-7.2,0.9c-2.6-0.4-5-1.5-7.5-3.3c-2.5-1.9-4.3-4-5.5-6.4c-1.1-2.4-1.4-5-0.9-7.7
		c0.4-2.1,1.6-4.5,3.6-7.2c1.9-2.6,3.5-4.3,4.9-5.2s2.9-1.5,4.5-1.6c1.6-0.1,3.3,0.2,5.1,0.8l-3.9,7.8c-1.1-0.4-2.1-0.4-3.1,0
		s-1.8,1-2.6,2.1c-1.2,1.6-1.5,3.2-1.1,5c0.4,1.7,1.8,3.5,4.1,5.2c2.5,1.9,4.7,2.7,6.4,2.6c1.8-0.1,3.3-1.1,4.5-2.8
		c0.6-0.8,1-1.7,1.3-2.6c0.3-0.9,0.5-2,0.7-3.4l-2.2-1.6L477.3,434.5z"/>
	<path class="st1" d="M491,407l5.2-10.4l5.5,2.8l-5.2,10.4L491,407z"/>
	<path class="st1" d="M493.3,360.1l27.9,9l-2.5,7.7l-18.3-5.9c0.5,1.6,0.9,3,1.1,4.4c0.2,1.4,0.3,3,0.3,4.9l-6.3-2
		c0-2.9-0.3-5.2-1.1-7c-0.7-1.8-1.8-3.4-3.3-4.8L493.3,360.1z"/>
	<path class="st1" d="M518,357.1l0.5-8c1.1,0,2-0.2,2.5-0.6c0.5-0.4,0.9-1,1-1.7c0.2-1.3-0.2-2.4-1.4-3.3c-0.8-0.7-2.8-1.5-5.8-2.3
		c0.8,1.1,1.3,2.2,1.6,3.3c0.3,1.1,0.3,2.3,0,3.6c-0.5,2.5-1.8,4.5-3.9,5.9c-2.1,1.4-4.6,1.8-7.3,1.3c-1.9-0.4-3.5-1.1-4.9-2.3
		c-1.4-1.2-2.3-2.6-2.8-4.3c-0.5-1.7-0.5-3.7-0.1-6.1c0.5-2.8,1.5-5,2.8-6.5c1.3-1.5,3.1-2.6,5.4-3.2c2.3-0.6,5.2-0.6,8.7,0.1
		c5.1,1,8.7,2.8,10.6,5.4c2,2.6,2.6,5.8,1.9,9.6c-0.4,2.3-1,4-1.8,5.2c-0.8,1.2-1.7,2.1-2.9,2.8C520.9,356.5,519.6,356.9,518,357.1z
		 M508.1,340.2c-1.5-0.3-2.8-0.1-3.8,0.5c-1,0.6-1.6,1.5-1.8,2.6c-0.2,1,0,2,0.7,2.8c0.7,0.8,1.8,1.4,3.3,1.7
		c1.6,0.3,2.9,0.2,3.8-0.4c1-0.6,1.6-1.4,1.8-2.4c0.2-1.1,0-2.1-0.7-3C510.7,341.1,509.6,340.5,508.1,340.2z"/>
	<path class="st1" d="M522.9,329.3l-0.5-8c1.1-0.1,1.9-0.4,2.4-0.9c0.5-0.5,0.8-1.1,0.8-1.8c0.1-1.3-0.5-2.3-1.8-3.1
		c-0.9-0.6-2.9-1.1-6-1.6c0.9,1,1.6,2,2,3.1c0.4,1,0.6,2.2,0.5,3.5c-0.2,2.6-1.2,4.7-3.2,6.4c-1.9,1.7-4.3,2.4-7.1,2.2
		c-1.9-0.1-3.6-0.7-5.1-1.7c-1.5-1-2.6-2.3-3.3-4c-0.7-1.6-1-3.6-0.8-6c0.2-2.9,0.8-5.2,1.9-6.8c1.1-1.7,2.8-3,5-3.9
		c2.2-0.9,5.1-1.2,8.6-1c5.2,0.3,8.9,1.7,11.2,4s3.3,5.4,3.1,9.3c-0.1,2.3-0.5,4.1-1.1,5.4c-0.6,1.3-1.5,2.3-2.5,3.2
		C525.8,328.3,524.5,328.9,522.9,329.3z M511,313.8c-1.6-0.1-2.8,0.2-3.7,0.9c-0.9,0.7-1.4,1.7-1.5,2.8c-0.1,1.1,0.3,2,1,2.7
		c0.8,0.7,1.9,1.2,3.5,1.3c1.6,0.1,2.9-0.2,3.8-0.9c0.9-0.7,1.4-1.6,1.4-2.6c0.1-1.1-0.3-2.1-1.1-2.9
		C513.7,314.3,512.5,313.9,511,313.8z"/>
	<path class="st1" d="M500.4,284.7l29.3-1.8l0.5,8.1l-19.2,1.2c1.1,1.2,2,2.5,2.6,3.7c0.7,1.2,1.4,2.7,2,4.5l-6.6,0.4
		c-1-2.7-2.2-4.7-3.5-6.2c-1.3-1.4-2.9-2.5-4.8-3.3L500.4,284.7z"/>
</g>
</svg>
