<?xml version="1.0" encoding="utf-8"?>
<!-- Generator: Adobe Illustrator 23.0.1, SVG Export Plug-In . SVG Version: 6.00 Build 0)  -->
<svg version="1.1" id="HQFL" xmlns="http://www.w3.org/2000/svg" xmlns:xlink="http://www.w3.org/1999/xlink" x="0px" y="0px"
	 viewBox="0 0 595.3 595.3" style="enable-background:new 0 0 595.3 595.3;" xml:space="preserve">
<style type="text/css">
	.st0{fill-rule:evenodd;clip-rule:evenodd;fill:#FFFFFF;}
	.st1{fill-rule:evenodd;clip-rule:evenodd;}
	.st2{fill:#FFFFFF;}
</style>
<g>
	<g>
		<g>
			<g>
				<path class="st0" d="M55.6,102.1V119c-3.7-2.4-7.5-4.7-11.7-6.9L55.6,102.1L55.6,102.1z M55.6,253.6v75.5
					C46,309.4,37.5,288.4,30,266C39.5,262.4,48,258.2,55.6,253.6L55.6,253.6z"/>
			</g>
			<g>
				<path class="st1" d="M109.8,415.7V55.8l-54.2,46.3v16.9c58.2,38.3,56.1,99.8,0,134.5v75.5C70.9,360.9,89,389.4,109.8,415.7
					L109.8,415.7z"/>
			</g>
			<g>
				<path class="st0" d="M164,37.2V474c-19.8-18.4-37.9-37.6-54.2-58.3V55.8l38-32.5C153.1,28.4,158.5,33,164,37.2L164,37.2z"/>
			</g>
			<g>
				<path class="st1" d="M218,518.9V66.5c-19-6.6-36.9-16.1-54-29.2V474C180.7,489.5,198.7,504.3,218,518.9L218,518.9z"/>
			</g>
			<g>
				<path class="st0" d="M272.1,78.2v478.5c-19.1-12.5-37.2-25.1-54.2-37.9V66.4C235.1,72.5,253.2,76.2,272.1,78.2L272.1,78.2z"/>
			</g>
			<g>
				<path class="st1" d="M326.3,558.2V78.4c-8.5,0.9-17.2,1.4-26.1,1.7c-9.6-0.3-19-0.9-28.2-1.9v478.5c9.2,6,18.5,12,28.2,18
					C309.2,569.2,317.9,563.7,326.3,558.2L326.3,558.2z"/>
			</g>
			<g>
				<path class="st0" d="M376,68.6v455.1c-15.7,11.6-32.2,23-49.7,34.4V78.4C343.6,76.7,360.2,73.6,376,68.6L376,68.6z"/>
			</g>
			<g>
				<path class="st1" d="M430.2,479.9V42C413,54.1,395,62.7,375.9,68.7v455.2C395.3,509.6,413.3,495,430.2,479.9L430.2,479.9z"/>
			</g>
			<g>
				<path class="st0" d="M484.1,50.1V424c-16.3,19.7-34.3,38.2-54,55.9V42c7.7-5.5,15.3-11.7,22.7-18.7L484.1,50.1L484.1,50.1z"/>
			</g>
			<g>
				<path class="st1" d="M538.3,342.4v-93.3c-47.4-33.8-49-88.5,0-125.3V96.4l-54.2-46.3V424C504.8,399.1,522.8,372.2,538.3,342.4
					L538.3,342.4z"/>
			</g>
			<g>
				<path class="st0" d="M538.4,342.2v-93c9.1,6.4,19.8,12.1,32.1,16.8C561.4,293.5,550.7,318.7,538.4,342.2L538.4,342.2z
					 M538.4,123.7V96.5l18.3,15.6C550,115.7,543.9,119.6,538.4,123.7L538.4,123.7z"/>
			</g>
		</g>
		<g>
			<path class="st1" d="M300.4,591.7C156.2,503,58.3,401.9,12.9,260.5c90-34.5,93.5-104.1,7.8-147L147.9,6.4
				c44,41.8,94.2,60,152.5,61.8c58.3-1.8,108.5-20.1,152.5-61.8l127.2,107.2c-85.7,42.9-82.2,112.5,7.8,147
				C542.4,401.9,444.6,503,300.4,591.7L300.4,591.7z M300.4,575.9C164.7,491.4,77.7,409.2,30.1,267.1
				c84.5-31.8,92.7-111.8,13.9-153.9l103.9-88.8c44,41.8,94.2,54.9,152.5,56.8c58.3-1.8,108.5-15,152.5-56.8l103.9,88.8
				c-78.8,42.1-70.6,122.1,13.9,153.9C523.1,409.2,436.1,491.4,300.4,575.9L300.4,575.9z"/>
			<path class="st2" d="M300.4,593l-0.6-0.4c-75.7-46.6-134.9-94.4-181-146.1C69.1,390.8,34.1,330.1,11.9,260.9l-0.3-1l1-0.4
				c42.5-16.3,67.7-41.6,69.1-69.5c1.4-27.8-21-55.2-61.4-75.4l-1.5-0.8L147.9,4.9l0.7,0.7c41.6,39.5,91.2,59.6,151.8,61.5
				c60.5-1.9,110.1-22,151.7-61.5l0.7-0.7l129.2,108.9l-1.5,0.8c-40.4,20.2-62.8,47.7-61.4,75.4c1.4,27.9,26.5,53.2,69.1,69.5l1,0.4
				l-0.3,1c-22.3,69.2-57.2,130-106.9,185.7c-46.1,51.7-105.3,99.5-181,146.1L300.4,593z M14.3,261.2
				c42.8,132.1,131.1,233.7,286.1,329.3c155.1-95.5,243.3-197.1,286.1-329.3c-42.8-16.6-68.1-42.5-69.5-71.1
				c-1.4-28.3,20.9-56.2,61.1-76.8L452.9,7.9c-41.8,39.4-91.8,59.5-152.5,61.4c-60.8-1.9-110.7-22-152.6-61.4L22.7,113.3
				c40.3,20.5,62.5,48.4,61.1,76.8C82.4,218.7,57.1,244.6,14.3,261.2z M300.4,577.2l-0.6-0.4c-75.2-46.8-127.2-87.8-168.4-133
				c-46.6-51-79.1-107-102.3-176.4l-0.3-1l1-0.4c40.3-15.2,65.6-42.8,67.6-73.9c2-30.2-17.7-58.6-53.9-78l-1.4-0.8L147.9,23l0.7,0.7
				c38.9,37,85.8,54.4,151.8,56.5c66-2.1,112.8-19.5,151.7-56.5l0.7-0.7l105.9,90.5l-1.4,0.8c-36.2,19.3-55.8,47.8-53.9,78
				c2,31.1,27.3,58.7,67.6,73.9l1,0.4l-0.3,1c-23.2,69.3-55.7,125.4-102.3,176.4C428.2,489,376.2,530,301,576.8L300.4,577.2z
				 M31.5,267.8C80.8,414,174.6,496.2,300.4,574.6C426.2,496.2,520,414,569.3,267.8c-40.5-15.6-65.9-43.7-68-75.5
				c-2-30.7,17.5-59.5,53.6-79.3L452.9,26c-39.2,36.9-86.3,54.3-152.5,56.4C234.2,80.3,187.1,62.9,147.8,26L45.9,113
				c36.1,19.8,55.6,48.6,53.6,79.3C97.5,224.1,72.1,252.2,31.5,267.8z"/>
		</g>
		<g>
			<polygon class="st0" points="463.2,33.1 549.9,105.9 147.7,455.5 77.6,365.3 463.2,33.1 			"/>
		</g>
		<g>
			<path class="st1" d="M457.8,21.7l103.9,86.9L146.8,470L60.9,362.4L457.8,21.7L457.8,21.7z M463.2,33.2l86.7,72.8L147.7,455.5
				l-70.1-90.1L463.2,33.2L463.2,33.2z"/>
		</g>
		<g>
			<path class="st1" d="M100.1,376.3l48.6-43.2l11.2,13.4L143.5,361l34,40.9l-16,14.2l-34-40.9l-16.3,14.5L100.1,376.3L100.1,376.3z
				 M189.5,296.7l16-14.2l27,32.4c2.7,3.2,4.7,6.7,6.1,10.4c1.4,3.7,2,7.5,1.8,11.5c-0.3,3.9-1.1,7.3-2.7,10.2
				c-2.1,4-5.3,7.9-9.7,11.8c-2.5,2.2-5.4,4.5-8.7,6.8c-3.3,2.3-6.4,3.7-9.3,4.4c-2.9,0.7-6,0.7-9.4,0.2c-3.3-0.5-6.2-1.6-8.6-3.2
				c-3.9-2.6-6.9-5.2-9.1-7.9l-27-32.4l16-14.2l27.6,33.2c2.5,3,5.2,4.6,8.1,4.9c3,0.3,5.8-0.8,8.6-3.3c2.7-2.4,4.2-5.2,4.4-8.2
				c0.2-3-1-6-3.5-9.1L189.5,296.7L189.5,296.7z M216,273.2l26.6-23.6c5.8-5.1,11.3-7.5,16.6-7.2c5.3,0.3,10.2,3.2,14.6,8.5
				c4.6,5.5,6.6,11.2,6,17c-0.6,5.9-4.1,11.7-10.5,17.4l-8.7,7.8l16.8,20.2l-16,14.3L216,273.2L216,273.2z M251.3,282.1l3.9-3.5
				c3.1-2.7,4.8-5.2,5.1-7.5c0.3-2.2-0.3-4.2-1.7-6c-1.4-1.7-3.2-2.7-5.2-2.9c-2.1-0.2-4.6,1-7.6,3.6l-4.6,4L251.3,282.1
				L251.3,282.1z M268.9,226.2l16-14.2l45.2,54.3l-16,14.2L268.9,226.2L268.9,226.2z M320.5,180.3l39.5-35.1l9.7,11.7l-23.5,20.9
				l7.9,9.5l20-17.8l9.1,11l-20,17.8l18.5,22.2l-16,14.3L320.5,180.3L320.5,180.3z M389.3,187.3l15.3-13.7l12.6,15.1l-15.3,13.7
				L389.3,187.3L389.3,187.3z M466.9,106l17.7-8c2.5,5,3.9,9.7,4.2,14.3s-0.5,8.9-2.3,13c-1.8,4.1-5.1,8.2-9.7,12.3
				c-5.6,5-10.9,8.2-15.9,9.7c-5,1.4-10.6,1.2-16.8-0.9c-6.2-2-12.1-6.4-17.7-13.1c-7.5-9-11-17.9-10.4-26.8c0.5-8.9,5-17,13.3-24.4
				c6.5-5.8,12.8-9,18.8-9.5c6-0.5,12.3,1.2,18.9,5.4l-11.4,15.8c-1.9-1.2-3.4-2-4.6-2.3c-2-0.5-3.9-0.5-5.7,0
				c-1.9,0.5-3.6,1.4-5.2,2.8c-3.6,3.2-5.1,7.2-4.5,12c0.4,3.6,2.7,7.8,6.7,12.7c5,6,9.3,9.4,12.9,10.1c3.6,0.7,7-0.4,10.1-3.2
				c3.1-2.7,4.6-5.7,4.7-8.9C470.1,113.7,469,110.1,466.9,106L466.9,106z M494.8,93.5l15.3-13.7l12.6,15.1l-15.4,13.7L494.8,93.5
				L494.8,93.5z"/>
		</g>
	</g>
</g>
</svg>
